<svg version="1.1" xmlns="http://www.w3.org/2000/svg" xmlns:xlink="http://www.w3.org/1999/xlink" x="0px"
    y="0px" width="28px" viewBox="0 0 37.2 37.2" style="enable-background:new 0 0 37.2 37.2;" xml:space="preserve"  fill="currentColor">
<path id="Path_342" class="st0" d="M27.8,11.5c-0.7,0.4-1.5,0.7-2.4,0.9c-0.7-0.8-1.7-1.2-2.8-1.2c-2.1,0-3.8,1.7-3.8,3.8
    c0,0,0,0,0,0c0,0.3,0,0.5,0.1,0.8c-3.1-0.1-5.9-1.6-7.9-3.9c-1,1.7-0.5,4,1.1,5.1c-0.6,0-1.2-0.2-1.8-0.5v0.1c0,1.8,1.3,3.3,3,3.7
    c-0.5,0.1-1.1,0.2-1.7,0.1c0.5,1.5,1.9,2.6,3.5,2.6c-1.3,1.1-3,1.7-4.7,1.7c-0.3,0-0.6,0-0.9-0.1c1.7,1.1,3.7,1.7,5.8,1.7
    c5.9,0,10.8-4.8,10.8-10.7c0,0,0,0,0,0v-0.5c0.7-0.6,1.3-1.2,1.8-1.9c-0.7,0.3-1.4,0.5-2.2,0.6C26.6,13.1,27.4,12.4,27.8,11.5z"/>
<!--path class="st0" d="M18.6,2.4c9,0,16.3,7.3,16.3,16.3s-7.3,16.3-16.3,16.3S2.4,27.6,2.4,18.6S9.6,2.4,18.6,2.4 M18.6,0.4
    C8.6,0.4,0.4,8.6,0.4,18.6s8.2,18.2,18.2,18.2s18.2-8.2,18.2-18.2S28.7,0.4,18.6,0.4L18.6,0.4z"/-->
</svg>  